nColumns=28
nRows=80
DataType=double
version=3
OpenSimVersion=4.1
endheader
time	ground_force_1_vx	ground_force_1_vy	ground_force_1_vz	ground_force_1_px	ground_force_1_py	ground_force_1_pz	ground_force_1_mx	ground_force_1_my	ground_force_1_mz	ground_force_2_vx	ground_force_2_vy	ground_force_2_vz	ground_force_2_px	ground_force_2_py	ground_force_2_pz	ground_force_2_mx	ground_force_2_my	ground_force_2_mz	ground_force_3_vx	ground_force_3_vy	ground_force_3_vz	ground_force_3_px	ground_force_3_py	ground_force_3_pz	ground_force_3_mx	ground_force_3_my	ground_force_3_mz
0	-3.48047	45.9002	-0.573302	-0.264605	0.006	-0.501483	0	0.319069	0	-3.88191	49.9473	1.89284	-0.261891	0.006	-0.703046	0	0.066859	0	0	0	0	0	0	0	0	0	0
0.01	-3.60481	45.8852	-0.517659	-0.264486	0.006	-0.499192	0	0.314662	0	-3.70308	49.6986	1.88884	-0.259024	0.006	-0.702469	0	0.00764535	0	0	0	0	0	0	0	0	0	0
0.02	-3.68831	45.7749	-0.410447	-0.264457	0.006	-0.49778	0	0.327422	0	-3.58823	49.5954	1.92714	-0.257632	0.006	-0.702294	0	-0.0485728	0	0	0	0	0	0	0	0	0	0
0.03	-3.65059	45.7242	-0.409716	-0.264404	0.006	-0.49859	0	0.329492	0	-3.62487	49.6563	1.96041	-0.257667	0.006	-0.701917	0	-0.062116	0	0	0	0	0	0	0	0	0	0
0.04	-3.5699	45.7983	-0.447033	-0.264657	0.006	-0.49834	0	0.299859	0	-3.64744	49.6138	1.96877	-0.257354	0.006	-0.701609	0	-0.0607291	0	0	0	0	0	0	0	0	0	0
0.05	-3.59144	45.673	-0.453995	-0.265034	0.006	-0.498261	0	0.301329	0	-3.67421	49.6659	1.91435	-0.257322	0.006	-0.701902	0	-0.0439912	0	0	0	0	0	0	0	0	0	0
0.06	-3.68916	45.396	-0.417041	-0.265044	0.006	-0.498283	0	0.32743	0	-3.70019	49.7089	1.82416	-0.257211	0.006	-0.702495	0	-0.0318225	0	0	0	0	0	0	0	0	0	0
0.07	-3.72924	45.4209	-0.421572	-0.264533	0.006	-0.498009	0	0.33871	0	-3.70148	49.6052	1.8492	-0.256553	0.006	-0.701694	0	-0.0332116	0	0	0	0	0	0	0	0	0	0
0.08	-3.66273	45.5932	-0.472053	-0.264363	0.006	-0.497874	0	0.3224	0	-3.71978	49.5352	1.93155	-0.256162	0.006	-0.701268	0	-0.0459114	0	0	0	0	0	0	0	0	0	0
0.09	-3.58136	45.6195	-0.488112	-0.264361	0.006	-0.497475	0	0.307513	0	-3.72644	49.5171	1.95554	-0.256118	0.006	-0.700982	0	-0.059325	0	0	0	0	0	0	0	0	0	0
0.1	-3.55726	45.684	-0.488408	-0.264308	0.006	-0.496548	0	0.304759	0	-3.71541	49.4155	1.91166	-0.256659	0.006	-0.701114	0	-0.0559549	0	0	0	0	0	0	0	0	0	0
0.11	-3.5052	45.645	-0.516228	-0.264323	0.006	-0.496768	0	0.293122	0	-3.70764	49.4999	1.81309	-0.256489	0.006	-0.701813	0	-0.0518896	0	0	0	0	0	0	0	0	0	0
0.12	-3.58726	45.4701	-0.509955	-0.264721	0.006	-0.497655	0	0.319325	0	-3.71799	49.6437	1.71779	-0.256298	0.006	-0.702329	0	-0.0627028	0	0	0	0	0	0	0	0	0	0
0.13	-3.62173	45.5535	-0.512945	-0.264247	0.006	-0.49693	0	0.317806	0	-3.70508	49.5721	1.77039	-0.256088	0.006	-0.701759	0	-0.0519868	0	0	0	0	0	0	0	0	0	0
0.14	-3.61036	45.7169	-0.481146	-0.263776	0.006	-0.495373	0	0.30796	0	-3.6992	49.4131	1.83354	-0.25525	0.006	-0.700687	0	-0.0339035	0	0	0	0	0	0	0	0	0	0
0.15	-3.63693	45.7053	-0.508292	-0.26428	0.006	-0.495477	0	0.314296	0	-3.69296	49.3778	1.83737	-0.255225	0.006	-0.700142	0	-0.017707	0	0	0	0	0	0	0	0	0	0
0.16	-3.69272	45.4846	-0.539346	-0.264787	0.006	-0.497133	0	0.335587	0	-3.67758	49.2877	1.74168	-0.256248	0.006	-0.699954	0	-0.0229064	0	0	0	0	0	0	0	0	0	0
0.17	-3.70193	45.2797	-0.530708	-0.264976	0.006	-0.498255	0	0.336764	0	-3.66282	49.1535	1.71271	-0.256556	0.006	-0.700016	0	-0.0256864	0	0	0	0	0	0	0	0	0	0
0.18	-3.65371	45.0912	-0.489198	-0.265253	0.006	-0.499023	0	0.325139	0	-3.66989	49.2314	1.8008	-0.256868	0.006	-0.700843	0	-0.0182668	0	0	0	0	0	0	0	0	0	0
0.19	-3.55881	45.1678	-0.444293	-0.265029	0.006	-0.498089	0	0.306895	0	-3.65499	49.3227	1.88299	-0.256561	0.006	-0.700829	0	-0.0317267	0	0	0	0	0	0	0	0	0	0
0.2	-3.58843	45.2695	-0.40593	-0.264765	0.006	-0.497103	0	0.318787	0	-3.64327	49.2171	1.91248	-0.256477	0.006	-0.699995	0	-0.0338821	0	0	0	0	0	0	0	0	0	0
0.21	-3.66131	45.0823	-0.340645	-0.264643	0.006	-0.497327	0	0.334203	0	-3.66811	49.2479	1.86172	-0.256557	0.006	-0.700384	0	-0.0199428	0	0	0	0	0	0	0	0	0	0
0.22	-3.68873	44.9256	-0.317944	-0.264735	0.006	-0.497894	0	0.340561	0	-3.70662	49.2512	1.77158	-0.256601	0.006	-0.701423	0	-0.0128238	0	0	0	0	0	0	0	0	0	0
0.23	-3.67489	44.8516	-0.385136	-0.264962	0.006	-0.498607	0	0.342238	0	-3.76561	49.063	1.77931	-0.257818	0.006	-0.701735	0	-0.0113525	0	0	0	0	0	0	0	0	0	0
0.24	-3.77446	44.2521	-0.321773	-0.265676	0.006	-0.50059	0	0.372607	0	-3.80181	49.1071	1.81864	-0.258037	0.006	-0.702248	0	-0.0159184	0	0	0	0	0	0	0	0	0	0
0.25	-3.87228	43.5617	-0.222166	-0.265988	0.006	-0.502849	0	0.394446	0	-3.8512	49.2375	1.79106	-0.257778	0.006	-0.702361	0	-0.0146781	0	0	0	0	0	0	0	0	0	0
0.26	-3.84221	43.5046	-0.22164	-0.265501	0.006	-0.502029	0	0.380339	0	-3.9177	49.0446	1.78424	-0.258136	0.006	-0.701338	0	-0.0463107	0	0	0	0	0	0	0	0	0	0
0.27	-3.81799	43.514	-0.213243	-0.265031	0.006	-0.501572	0	0.382546	0	-3.97454	48.8584	1.77308	-0.258272	0.006	-0.700629	0	-0.0658348	0	0	0	0	0	0	0	0	0	0
0.28	-3.80211	43.1015	-0.144522	-0.265206	0.006	-0.502578	0	0.389005	0	-4.00602	48.7677	1.69149	-0.257912	0.006	-0.700543	0	-0.0624486	0	0	0	0	0	0	0	0	0	0
0.29	-3.7854	42.4542	-0.0725502	-0.265997	0.006	-0.503703	0	0.39078	0	-4.09349	48.5838	1.61784	-0.257392	0.006	-0.70045	0	-0.0741715	0	0	0	0	0	0	0	0	0	0
0.3	-3.82381	41.6103	-0.0208672	-0.266101	0.006	-0.50573	0	0.409849	0	-4.26466	48.3067	1.64473	-0.256442	0.006	-0.699888	0	-0.0834414	0	0	0	0	0	0	0	0	0	0
0.31	-3.83038	40.5475	0.0815004	-0.266691	0.006	-0.508944	0	0.428599	0	-4.38693	47.6884	1.67382	-0.256251	0.006	-0.698463	0	-0.0975004	0	0	0	0	0	0	0	0	0	0
0.32	-3.82195	39.4586	0.241564	-0.267513	0.006	-0.509909	0	0.442831	0	-4.44591	46.9089	1.58895	-0.256061	0.006	-0.696766	0	-0.131204	0	0	0	0	0	0	0	0	0	0
0.33	-3.86495	37.9208	0.450871	-0.267726	0.006	-0.512083	0	0.473749	0	-4.46768	46.1036	1.48609	-0.256138	0.006	-0.695248	0	-0.152602	0	0	0	0	0	0	0	0	0	0
0.34	-3.8637	36.18	0.565136	-0.267384	0.006	-0.514667	0	0.506828	0	-4.50561	45.2011	1.44263	-0.257166	0.006	-0.693858	0	-0.16692	0	0	0	0	0	0	0	0	0	0
0.35	-3.8074	34.3901	0.692521	-0.266639	0.006	-0.518199	0	0.534527	0	-4.66771	44.2978	1.43435	-0.257853	0.006	-0.692989	0	-0.173792	0	0	0	0	0	0	0	0	0	0
0.36	-3.65642	32.2549	0.881662	-0.265667	0.006	-0.52369	0	0.558967	0	-4.99383	42.918	1.39646	-0.256696	0.006	-0.690706	0	-0.22496	0	0	0	0	0	0	0	0	0	0
0.37	-3.64564	29.4295	0.96429	-0.265016	0.006	-0.532781	0	0.615192	0	-5.33231	40.9496	1.27685	-0.256013	0.006	-0.686463	0	-0.307898	0	0	0	0	0	0	0	0	0	0
0.38	-3.51782	26.5196	1.26849	-0.266103	0.006	-0.544002	0	0.682483	0	-5.5535	38.9397	1.12604	-0.25719	0.006	-0.68205	0	-0.359405	0	0	0	0	0	0	0	0	0	0
0.39	-3.33031	23.7099	1.82035	-0.268525	0.006	-0.555014	0	0.734349	0	-5.64233	37.0679	0.932461	-0.259725	0.006	-0.675762	0	-0.408538	0	0	0	0	0	0	0	0	0	0
0.4	-2.26448	14.7872	1.63589	-0.191058	0.0042	-0.397967	0	0.557397	0	-5.51983	34.8591	0.590907	-0.261758	0.006	-0.668096	0	-0.461639	0	0	0	0	0	0	0	0	0	0
0.41	0	0	0	0	0	0	0	0	0	-5.06856	32.3125	0.0626278	-0.262323	0.006	-0.658322	0	-0.479228	0	0	0	0	0	0	0	0	0	0
0.42	0	0	0	0	0	0	0	0	0	-4.57075	30.2127	-0.582252	-0.264775	0.006	-0.649119	0	-0.482788	0	0	0	0	0	0	0	0	0	0
0.43	0	0	0	0	0	0	0	0	0	-4.08177	28.6651	-1.11845	-0.268168	0.006	-0.641659	0	-0.490263	0	0	0	0	0	0	0	0	0	0
0.44	0	0	0	0	0	0	0	0	0	-3.46191	26.9962	-1.64199	-0.271595	0.006	-0.631839	0	-0.472603	0	0	0	0	0	0	0	0	0	0
0.45	0	0	0	0	0	0	0	0	0	-2.79918	25.3196	-2.26874	-0.274064	0.006	-0.621429	0	-0.415612	0	0	0	0	0	0	0	0	0	0
0.46	0	0	0	0	0	0	0	0	0	-2.15654	23.8898	-3.04789	-0.277968	0.006	-0.612014	0	-0.375331	0	0	0	0	0	0	0	0	0	0
0.47	0	0	0	0	0	0	0	0	0	-1.57138	22.3971	-3.77619	-0.280954	0.006	-0.600505	0	-0.349303	0	0	0	0	0	0	0	0	0	0
0.48	0	0	0	0	0	0	0	0	0	-0.880798	17.6685	-3.58241	-0.237584	0.0051	-0.498667	0	-0.237462	0	0	0	0	0	0	0	0	0	0
0.49	0	0	0	0	0	0	0	0	0	0	0	0	0	0	0	0	0	0	0	0	0	0	0	0	0	0	0
0.5	0	0	0	0	0	0	0	0	0	0	0	0	0	0	0	0	0	0	0	0	0	0	0	0	0	0	0
0.51	0	0	0	0	0	0	0	0	0	0	0	0	0	0	0	0	0	0	0	0	0	0	0	0	0	0	0
0.52	0	0	0	0	0	0	0	0	0	0	0	0	0	0	0	0	0	0	0	0	0	0	0	0	0	0	0
0.53	0	0	0	0	0	0	0	0	0	0	0	0	0	0	0	0	0	0	0	0	0	0	0	0	0	0	0
0.54	0	0	0	0	0	0	0	0	0	0	0	0	0	0	0	0	0	0	0	0	0	0	0	0	0	0	0
0.55	0	0	0	0	0	0	0	0	0	0	0	0	0	0	0	0	0	0	0	0	0	0	0	0	0	0	0
0.56	0	0	0	0	0	0	0	0	0	0	0	0	0	0	0	0	0	0	0	0	0	0	0	0	0	0	0
0.57	0	0	0	0	0	0	0	0	0	0	0	0	0	0	0	0	0	0	0	0	0	0	0	0	0	0	0
0.58	0	0	0	0	0	0	0	0	0	0	0	0	0	0	0	0	0	0	0	0	0	0	0	0	0	0	0
0.59	0	0	0	0	0	0	0	0	0	0	0	0	0	0	0	0	0	0	0	0	0	0	0	0	0	0	0
0.6	0	0	0	0	0	0	0	0	0	0	0	0	0	0	0	0	0	0	0	0	0	0	0	0	0	0	0
0.61	0	0	0	0	0	0	0	0	0	0	0	0	0	0	0	0	0	0	0	0	0	0	0	0	0	0	0
0.62	0	0	0	0	0	0	0	0	0	0	0	0	0	0	0	0	0	0	0	0	0	0	0	0	0	0	0
0.63	0	0	0	0	0	0	0	0	0	0	0	0	0	0	0	0	0	0	0	0	0	0	0	0	0	0	0
0.64	0	0	0	0	0	0	0	0	0	0	0	0	0	0	0	0	0	0	0	0	0	0	0	0	0	0	0
0.65	0	0	0	0	0	0	0	0	0	0	0	0	0	0	0	0	0	0	0	0	0	0	0	0	0	0	0
0.66	0	0	0	0	0	0	0	0	0	5.32383	7.12927	-1.11472	-0.110649	0.0021	-0.205308	0	0.888586	0	0	0	0	0	0	0	0	0	0
0.67	0	0	0	0	0	0	0	0	0	16.2064	21.6339	-2.68472	-0.319633	0.006	-0.599686	0	2.52278	0	0	0	0	0	0	0	0	0	0
0.68	0	0	0	0	0	0	0	0	0	17.8405	23.3381	-2.15148	-0.322663	0.006	-0.614511	0	2.53301	0	0	0	0	0	0	0	0	0	0
0.69	0	0	0	0	0	0	0	0	0	19.7632	25.3221	-1.97725	-0.324444	0.006	-0.627577	0	2.5538	0	0	0	0	0	0	0	0	0	0
0.7	0	0	0	0	0	0	0	0	0	22.0621	28.4541	-2.20307	-0.326157	0.006	-0.644106	0	2.51614	0	0	0	0	0	0	0	0	0	0
0.71	0	0	0	0	0	0	0	0	0	24.264	33.0629	-2.83587	-0.327522	0.006	-0.661969	0	2.34974	0	0	0	0	0	0	0	0	0	0
0.72	5.16821	5.21429	0.61848	-0.10671	0.0015	-0.148454	0	-0.474521	0	25.8097	38.7343	-3.82224	-0.328334	0.006	-0.677227	0	2.10966	0	0	0	0	0	0	0	0	0	0
0.73	21.5332	25.6727	2.01606	-0.412572	0.006	-0.567434	0	-1.5253	0	26.9747	46.2493	-5.22218	-0.328017	0.006	-0.69019	0	1.91262	0	0	0	0	0	0	0	0	0	0
0.74	22.4242	35.1157	1.56942	-0.394149	0.006	-0.535968	0	-0.961783	0	27.9653	55.5963	-6.46468	-0.328672	0.006	-0.701726	0	1.71629	0	0	0	0	0	0	0	0	0	0
0.75	22.5551	47.7846	1.60263	-0.378373	0.006	-0.513924	0	-0.449071	0	28.7706	65.8486	-6.42238	-0.331282	0.006	-0.71193	0	1.59516	0	0	0	0	0	0	0	0	0	0
0.76	21.9489	63.7326	2.19047	-0.36652	0.006	-0.497769	0	0.0132259	0	29.5051	78.2217	-5.5454	-0.333983	0.006	-0.721224	0	1.54317	0	0	0	0	0	0	0	0	0	0
0.77	20.0149	82.1124	2.71043	-0.359272	0.006	-0.48681	0	0.398816	0	29.3044	93.3859	-4.71214	-0.334857	0.006	-0.729941	0	1.45055	0	0	0	0	0	0	0	0	0	0
0.78	15.6229	102.115	1.97272	-0.353853	0.006	-0.478975	0	0.695448	0	27.2968	111.068	-4.16388	-0.335368	0.006	-0.737437	0	1.30811	0	0	0	0	0	0	0	0	0	0
0.79	8.20364	123.214	-0.925586	-0.349472	0.006	-0.472656	0	0.866448	0	24.1376	130.068	-3.38444	-0.335799	0.006	-0.74314	0	1.26453	0	0	0	0	0	0	0	0	0	0
